<svg xmlns="http://www.w3.org/2000/svg" width="1500" height="760" viewBox="0 0 1500 760" role="img" aria-labelledby="title desc">
<title id="title">Accuracy across medical QA benchmarks</title>
<desc id="desc">Dark-mode line chart showing strict-format accuracy for ten small language models. Datasets are sorted by mean accepted accuracy from high to low.</desc>
<rect width="100%" height="100%" fill="#0d1117"/>
<style>
text{font-family:Inter,Arial,Helvetica,sans-serif;fill:#e6edf3}
.title{font-size:26px;font-weight:700}
.subtitle{font-size:14px;fill:#8b949e}
.axis{font-size:13px;fill:#c9d1d9}
.tick{font-size:12px;fill:#8b949e}
.legend{font-size:12px;fill:#c9d1d9}
.tiny{font-size:10px;fill:#8b949e}
.label{font-size:11px;fill:#c9d1d9}
.grid{stroke:#30363d;stroke-width:1}
.axisline{stroke:#c9d1d9;stroke-width:1.25}
</style>
<rect x="46" y="20" width="1408" height="690" rx="8" fill="#161b22" stroke="#30363d"/>
<text x="92" y="42" class="title">Multi-MedQA SLM Benchmark Accuracy</text>
<text x="92" y="66" class="subtitle">Strict multiple-choice accuracy; datasets are sorted left-to-right by mean accepted accuracy.</text>
<line x1="92" y1="616.00" x2="1140" y2="616.00" class="grid"/>
<text x="77" y="620.00" text-anchor="end" class="tick">0.0</text>
<line x1="92" y1="534.15" x2="1140" y2="534.15" class="grid"/>
<text x="77" y="538.15" text-anchor="end" class="tick">0.1</text>
<line x1="92" y1="452.31" x2="1140" y2="452.31" class="grid"/>
<text x="77" y="456.31" text-anchor="end" class="tick">0.2</text>
<line x1="92" y1="370.46" x2="1140" y2="370.46" class="grid"/>
<text x="77" y="374.46" text-anchor="end" class="tick">0.3</text>
<line x1="92" y1="288.62" x2="1140" y2="288.62" class="grid"/>
<text x="77" y="292.62" text-anchor="end" class="tick">0.4</text>
<line x1="92" y1="206.77" x2="1140" y2="206.77" class="grid"/>
<text x="77" y="210.77" text-anchor="end" class="tick">0.5</text>
<line x1="92" y1="124.92" x2="1140" y2="124.92" class="grid"/>
<text x="77" y="128.92" text-anchor="end" class="tick">0.6</text>
<line x1="92" y1="84" x2="92" y2="616" class="axisline"/>
<line x1="92" y1="616" x2="1140" y2="616" class="axisline"/>
<text x="27" y="350.0" class="axis" transform="rotate(-90 27 350.0)" text-anchor="middle">Accuracy</text>
<line x1="92.00" y1="84" x2="92.00" y2="616" stroke="#21262d" stroke-width="1"/>
<line x1="92.00" y1="616" x2="92.00" y2="622" stroke="#c9d1d9" stroke-width="1"/>
<text x="92.00" y="647" text-anchor="end" class="tick" transform="rotate(-30 92.00 647)">PubMedQA</text>
<text x="92.00" y="671" text-anchor="middle" class="tiny">mean 0.38</text>
<line x1="241.71" y1="84" x2="241.71" y2="616" stroke="#21262d" stroke-width="1"/>
<line x1="241.71" y1="616" x2="241.71" y2="622" stroke="#c9d1d9" stroke-width="1"/>
<text x="241.71" y="647" text-anchor="end" class="tick" transform="rotate(-30 241.71 647)">CRAFT</text>
<text x="241.71" y="671" text-anchor="middle" class="tiny">mean 0.33</text>
<line x1="391.43" y1="84" x2="391.43" y2="616" stroke="#21262d" stroke-width="1"/>
<line x1="391.43" y1="616" x2="391.43" y2="622" stroke="#c9d1d9" stroke-width="1"/>
<text x="391.43" y="647" text-anchor="end" class="tick" transform="rotate(-30 391.43 647)">MMLU Med</text>
<text x="391.43" y="671" text-anchor="middle" class="tiny">mean 0.27</text>
<line x1="541.14" y1="84" x2="541.14" y2="616" stroke="#21262d" stroke-width="1"/>
<line x1="541.14" y1="616" x2="541.14" y2="622" stroke="#c9d1d9" stroke-width="1"/>
<text x="541.14" y="647" text-anchor="end" class="tick" transform="rotate(-30 541.14 647)">MMedBench</text>
<text x="541.14" y="671" text-anchor="middle" class="tiny">mean 0.23</text>
<line x1="690.86" y1="84" x2="690.86" y2="616" stroke="#21262d" stroke-width="1"/>
<line x1="690.86" y1="616" x2="690.86" y2="622" stroke="#c9d1d9" stroke-width="1"/>
<text x="690.86" y="647" text-anchor="end" class="tick" transform="rotate(-30 690.86 647)">MedQA</text>
<text x="690.86" y="671" text-anchor="middle" class="tiny">mean 0.22</text>
<line x1="840.57" y1="84" x2="840.57" y2="616" stroke="#21262d" stroke-width="1"/>
<line x1="840.57" y1="616" x2="840.57" y2="622" stroke="#c9d1d9" stroke-width="1"/>
<text x="840.57" y="647" text-anchor="end" class="tick" transform="rotate(-30 840.57 647)">MedMCQA</text>
<text x="840.57" y="671" text-anchor="middle" class="tiny">mean 0.21</text>
<line x1="990.29" y1="84" x2="990.29" y2="616" stroke="#21262d" stroke-width="1"/>
<line x1="990.29" y1="616" x2="990.29" y2="622" stroke="#c9d1d9" stroke-width="1"/>
<text x="990.29" y="647" text-anchor="end" class="tick" transform="rotate(-30 990.29 647)">AfriMedQA</text>
<text x="990.29" y="671" text-anchor="middle" class="tiny">mean 0.12</text>
<line x1="1140.00" y1="84" x2="1140.00" y2="616" stroke="#21262d" stroke-width="1"/>
<line x1="1140.00" y1="616" x2="1140.00" y2="622" stroke="#c9d1d9" stroke-width="1"/>
<text x="1140.00" y="647" text-anchor="end" class="tick" transform="rotate(-30 1140.00 647)">MedXpertQA</text>
<text x="1140.00" y="671" text-anchor="middle" class="tiny">mean 0.07</text>
<polyline points="241.71,491.35 391.43,567.87 541.14,539.15 690.86,496.42 840.57,548.72 990.29,597.99 1140.00,605.61" fill="none" stroke="#c9d1d9" stroke-width="2.05" stroke-linecap="round" stroke-linejoin="round" opacity="0.72"/>
<polygon points="241.71,485.85 247.21,495.85 236.21,495.85" fill="#161b22" stroke="#c9d1d9" stroke-width="2.2"/>
<polygon points="391.43,562.37 396.93,572.37 385.93,572.37" fill="#161b22" stroke="#c9d1d9" stroke-width="2.2"/>
<polygon points="541.14,533.65 546.64,543.65 535.64,543.65" fill="#161b22" stroke="#c9d1d9" stroke-width="2.2"/>
<polygon points="690.86,490.92 696.36,500.92 685.36,500.92" fill="#161b22" stroke="#c9d1d9" stroke-width="2.2"/>
<polygon points="840.57,543.22 846.07,553.22 835.07,553.22" fill="#161b22" stroke="#c9d1d9" stroke-width="2.2"/>
<polygon points="990.29,592.49 995.79,602.49 984.79,602.49" fill="#161b22" stroke="#c9d1d9" stroke-width="2.2"/>
<polygon points="1140.00,600.11 1145.50,610.11 1134.50,610.11" fill="#161b22" stroke="#c9d1d9" stroke-width="2.2"/>
<text x="92.00" y="693" class="tiny" text-anchor="middle">Llama NA</text>
<polyline points="92.00,498.14 241.71,601.02 391.43,604.71 541.14,443.22 690.86,450.75 840.57,424.64 990.29,547.58 1140.00,608.31" fill="none" stroke="#f2cc60" stroke-width="2.05" stroke-linecap="round" stroke-linejoin="round" opacity="0.72"/>
<circle cx="92.00" cy="498.14" r="4.5" fill="#161b22" stroke="#f2cc60" stroke-width="2.2"/>
<circle cx="241.71" cy="601.02" r="4.5" fill="#161b22" stroke="#f2cc60" stroke-width="2.2"/>
<circle cx="391.43" cy="604.71" r="4.5" fill="#161b22" stroke="#f2cc60" stroke-width="2.2"/>
<circle cx="541.14" cy="443.22" r="4.5" fill="#161b22" stroke="#f2cc60" stroke-width="2.2"/>
<circle cx="690.86" cy="450.75" r="4.5" fill="#161b22" stroke="#f2cc60" stroke-width="2.2"/>
<circle cx="840.57" cy="424.64" r="4.5" fill="#161b22" stroke="#f2cc60" stroke-width="2.2"/>
<circle cx="990.29" cy="547.58" r="4.5" fill="#161b22" stroke="#f2cc60" stroke-width="2.2"/>
<circle cx="1140.00" cy="608.31" r="4.5" fill="#161b22" stroke="#f2cc60" stroke-width="2.2"/>
<polyline points="92.00,314.81 241.71,356.30 391.43,419.81 541.14,478.58 690.86,381.92 840.57,445.19 990.29,589.81 1140.00,589.24" fill="none" stroke="#7ee787" stroke-width="2.05" stroke-linecap="round" stroke-linejoin="round" opacity="0.72"/>
<polygon points="92.00,309.31 97.50,314.81 92.00,320.31 86.50,314.81" fill="#161b22" stroke="#7ee787" stroke-width="2.2"/>
<polygon points="241.71,350.80 247.21,356.30 241.71,361.80 236.21,356.30" fill="#161b22" stroke="#7ee787" stroke-width="2.2"/>
<polygon points="391.43,414.31 396.93,419.81 391.43,425.31 385.93,419.81" fill="#161b22" stroke="#7ee787" stroke-width="2.2"/>
<polygon points="541.14,473.08 546.64,478.58 541.14,484.08 535.64,478.58" fill="#161b22" stroke="#7ee787" stroke-width="2.2"/>
<polygon points="690.86,376.42 696.36,381.92 690.86,387.42 685.36,381.92" fill="#161b22" stroke="#7ee787" stroke-width="2.2"/>
<polygon points="840.57,439.69 846.07,445.19 840.57,450.69 835.07,445.19" fill="#161b22" stroke="#7ee787" stroke-width="2.2"/>
<polygon points="990.29,584.31 995.79,589.81 990.29,595.31 984.79,589.81" fill="#161b22" stroke="#7ee787" stroke-width="2.2"/>
<polygon points="1140.00,583.74 1145.50,589.24 1140.00,594.74 1134.50,589.24" fill="#161b22" stroke="#7ee787" stroke-width="2.2"/>
<polyline points="92.00,342.63 241.71,413.10 391.43,423.58 541.14,443.80 690.86,466.06 840.57,433.07 990.29,472.85 1140.00,529.82" fill="none" stroke="#79c0ff" stroke-width="2.05" stroke-linecap="round" stroke-linejoin="round" opacity="0.72"/>
<rect x="88.06" y="338.70" width="7.88" height="7.88" rx="1.2" fill="#161b22" stroke="#79c0ff" stroke-width="2.2"/>
<rect x="237.78" y="409.17" width="7.88" height="7.88" rx="1.2" fill="#161b22" stroke="#79c0ff" stroke-width="2.2"/>
<rect x="387.49" y="419.64" width="7.88" height="7.88" rx="1.2" fill="#161b22" stroke="#79c0ff" stroke-width="2.2"/>
<rect x="537.21" y="439.86" width="7.88" height="7.88" rx="1.2" fill="#161b22" stroke="#79c0ff" stroke-width="2.2"/>
<rect x="686.92" y="462.12" width="7.88" height="7.88" rx="1.2" fill="#161b22" stroke="#79c0ff" stroke-width="2.2"/>
<rect x="836.63" y="429.14" width="7.88" height="7.88" rx="1.2" fill="#161b22" stroke="#79c0ff" stroke-width="2.2"/>
<rect x="986.35" y="468.91" width="7.88" height="7.88" rx="1.2" fill="#161b22" stroke="#79c0ff" stroke-width="2.2"/>
<rect x="1136.06" y="525.88" width="7.88" height="7.88" rx="1.2" fill="#161b22" stroke="#79c0ff" stroke-width="2.2"/>
<polyline points="92.00,352.46 241.71,259.97 391.43,357.45 541.14,458.69 690.86,481.12 840.57,488.81 990.29,578.35 1140.00,533.17" fill="none" stroke="#ff7b72" stroke-width="2.05" stroke-linecap="round" stroke-linejoin="round" opacity="0.72"/>
<polygon points="92.00,346.96 97.50,352.46 92.00,357.96 86.50,352.46" fill="#161b22" stroke="#ff7b72" stroke-width="2.2"/>
<polygon points="241.71,254.47 247.21,259.97 241.71,265.47 236.21,259.97" fill="#161b22" stroke="#ff7b72" stroke-width="2.2"/>
<polygon points="391.43,351.95 396.93,357.45 391.43,362.95 385.93,357.45" fill="#161b22" stroke="#ff7b72" stroke-width="2.2"/>
<polygon points="541.14,453.19 546.64,458.69 541.14,464.19 535.64,458.69" fill="#161b22" stroke="#ff7b72" stroke-width="2.2"/>
<polygon points="690.86,475.62 696.36,481.12 690.86,486.62 685.36,481.12" fill="#161b22" stroke="#ff7b72" stroke-width="2.2"/>
<polygon points="840.57,483.31 846.07,488.81 840.57,494.31 835.07,488.81" fill="#161b22" stroke="#ff7b72" stroke-width="2.2"/>
<polygon points="990.29,572.85 995.79,578.35 990.29,583.85 984.79,578.35" fill="#161b22" stroke="#ff7b72" stroke-width="2.2"/>
<polygon points="1140.00,527.67 1145.50,533.17 1140.00,538.67 1134.50,533.17" fill="#161b22" stroke="#ff7b72" stroke-width="2.2"/>
<polyline points="92.00,134.74 241.71,350.98 391.43,380.04 541.14,446.01 690.86,509.68 840.57,519.34 990.29,572.05 1140.00,575.90" fill="none" stroke="#ffa657" stroke-width="2.05" stroke-linecap="round" stroke-linejoin="round" opacity="0.72"/>
<circle cx="92.00" cy="134.74" r="4.5" fill="#161b22" stroke="#ffa657" stroke-width="2.2"/>
<circle cx="241.71" cy="350.98" r="4.5" fill="#161b22" stroke="#ffa657" stroke-width="2.2"/>
<circle cx="391.43" cy="380.04" r="4.5" fill="#161b22" stroke="#ffa657" stroke-width="2.2"/>
<circle cx="541.14" cy="446.01" r="4.5" fill="#161b22" stroke="#ffa657" stroke-width="2.2"/>
<circle cx="690.86" cy="509.68" r="4.5" fill="#161b22" stroke="#ffa657" stroke-width="2.2"/>
<circle cx="840.57" cy="519.34" r="4.5" fill="#161b22" stroke="#ffa657" stroke-width="2.2"/>
<circle cx="990.29" cy="572.05" r="4.5" fill="#161b22" stroke="#ffa657" stroke-width="2.2"/>
<circle cx="1140.00" cy="575.90" r="4.5" fill="#161b22" stroke="#ffa657" stroke-width="2.2"/>
<polyline points="92.00,435.94 241.71,223.55 391.43,329.62 541.14,456.97 690.86,523.35 840.57,404.26 990.29,464.83 1140.00,541.52" fill="none" stroke="#39d3bb" stroke-width="2.7" stroke-linecap="round" stroke-linejoin="round" opacity="0.96"/>
<rect x="88.06" y="432.00" width="7.88" height="7.88" rx="1.2" fill="#161b22" stroke="#39d3bb" stroke-width="2.2"/>
<rect x="237.78" y="219.61" width="7.88" height="7.88" rx="1.2" fill="#161b22" stroke="#39d3bb" stroke-width="2.2"/>
<rect x="387.49" y="325.68" width="7.88" height="7.88" rx="1.2" fill="#161b22" stroke="#39d3bb" stroke-width="2.2"/>
<rect x="537.21" y="453.04" width="7.88" height="7.88" rx="1.2" fill="#161b22" stroke="#39d3bb" stroke-width="2.2"/>
<rect x="686.92" y="519.41" width="7.88" height="7.88" rx="1.2" fill="#161b22" stroke="#39d3bb" stroke-width="2.2"/>
<rect x="836.63" y="400.33" width="7.88" height="7.88" rx="1.2" fill="#161b22" stroke="#39d3bb" stroke-width="2.2"/>
<rect x="986.35" y="460.89" width="7.88" height="7.88" rx="1.2" fill="#161b22" stroke="#39d3bb" stroke-width="2.2"/>
<rect x="1136.06" y="537.58" width="7.88" height="7.88" rx="1.2" fill="#161b22" stroke="#39d3bb" stroke-width="2.2"/>
<polyline points="92.00,257.51 241.71,317.75 391.43,378.48 541.14,401.32 690.86,429.88 840.57,397.06 990.29,437.90 1140.00,535.79" fill="none" stroke="#d2a8ff" stroke-width="2.7" stroke-linecap="round" stroke-linejoin="round" opacity="0.96"/>
<polygon points="92.00,252.01 97.50,262.01 86.50,262.01" fill="#161b22" stroke="#d2a8ff" stroke-width="2.2"/>
<polygon points="241.71,312.25 247.21,322.25 236.21,322.25" fill="#161b22" stroke="#d2a8ff" stroke-width="2.2"/>
<polygon points="391.43,372.98 396.93,382.98 385.93,382.98" fill="#161b22" stroke="#d2a8ff" stroke-width="2.2"/>
<polygon points="541.14,395.82 546.64,405.82 535.64,405.82" fill="#161b22" stroke="#d2a8ff" stroke-width="2.2"/>
<polygon points="690.86,424.38 696.36,434.38 685.36,434.38" fill="#161b22" stroke="#d2a8ff" stroke-width="2.2"/>
<polygon points="840.57,391.56 846.07,401.56 835.07,401.56" fill="#161b22" stroke="#d2a8ff" stroke-width="2.2"/>
<polygon points="990.29,432.40 995.79,442.40 984.79,442.40" fill="#161b22" stroke="#d2a8ff" stroke-width="2.2"/>
<polygon points="1140.00,530.29 1145.50,540.29 1134.50,540.29" fill="#161b22" stroke="#d2a8ff" stroke-width="2.2"/>
<polyline points="92.00,277.16 241.71,298.03 391.43,323.65 541.14,347.95 690.86,339.44 840.57,432.26 990.29,502.15 1140.00,577.61" fill="none" stroke="#ff9b50" stroke-width="2.7" stroke-linecap="round" stroke-linejoin="round" opacity="0.96"/>
<rect x="88.06" y="273.22" width="7.88" height="7.88" rx="1.2" fill="#161b22" stroke="#ff9b50" stroke-width="2.2"/>
<rect x="237.78" y="294.09" width="7.88" height="7.88" rx="1.2" fill="#161b22" stroke="#ff9b50" stroke-width="2.2"/>
<rect x="387.49" y="319.71" width="7.88" height="7.88" rx="1.2" fill="#161b22" stroke="#ff9b50" stroke-width="2.2"/>
<rect x="537.21" y="344.02" width="7.88" height="7.88" rx="1.2" fill="#161b22" stroke="#ff9b50" stroke-width="2.2"/>
<rect x="686.92" y="335.50" width="7.88" height="7.88" rx="1.2" fill="#161b22" stroke="#ff9b50" stroke-width="2.2"/>
<rect x="836.63" y="428.32" width="7.88" height="7.88" rx="1.2" fill="#161b22" stroke="#ff9b50" stroke-width="2.2"/>
<rect x="986.35" y="498.21" width="7.88" height="7.88" rx="1.2" fill="#161b22" stroke="#ff9b50" stroke-width="2.2"/>
<rect x="1136.06" y="573.68" width="7.88" height="7.88" rx="1.2" fill="#161b22" stroke="#ff9b50" stroke-width="2.2"/>
<polyline points="92.00,102.01 241.71,132.94 391.43,186.06 541.14,280.76 690.86,267.99 840.57,312.76 990.29,400.83 1140.00,522.78" fill="none" stroke="#58a6ff" stroke-width="2.7" stroke-linecap="round" stroke-linejoin="round" opacity="0.96"/>
<circle cx="92.00" cy="102.01" r="4.5" fill="#161b22" stroke="#58a6ff" stroke-width="2.2"/>
<circle cx="241.71" cy="132.94" r="4.5" fill="#161b22" stroke="#58a6ff" stroke-width="2.2"/>
<circle cx="391.43" cy="186.06" r="4.5" fill="#161b22" stroke="#58a6ff" stroke-width="2.2"/>
<circle cx="541.14" cy="280.76" r="4.5" fill="#161b22" stroke="#58a6ff" stroke-width="2.2"/>
<circle cx="690.86" cy="267.99" r="4.5" fill="#161b22" stroke="#58a6ff" stroke-width="2.2"/>
<circle cx="840.57" cy="312.76" r="4.5" fill="#161b22" stroke="#58a6ff" stroke-width="2.2"/>
<circle cx="990.29" cy="400.83" r="4.5" fill="#161b22" stroke="#58a6ff" stroke-width="2.2"/>
<circle cx="1140.00" cy="522.78" r="4.5" fill="#161b22" stroke="#58a6ff" stroke-width="2.2"/>
<text x="1176" y="88" class="axis">Models</text>
<line x1="1176" y1="100" x2="1202" y2="100" stroke="#58a6ff" stroke-width="2.6" stroke-linecap="round"/>
<circle cx="1189.00" cy="100.00" r="3.7" fill="#161b22" stroke="#58a6ff" stroke-width="2.2"/>
<text x="1214" y="104" class="legend">Qwen3.5-0.8B</text>
<text x="1390" y="104" class="tiny" text-anchor="end">mean 0.42</text>
<line x1="1176" y1="131" x2="1202" y2="131" stroke="#ff9b50" stroke-width="2.6" stroke-linecap="round"/>
<rect x="1185.76" y="127.76" width="6.48" height="6.48" rx="1.2" fill="#161b22" stroke="#ff9b50" stroke-width="2.2"/>
<text x="1214" y="135" class="legend">Qwen2.5-0.5B</text>
<text x="1390" y="135" class="tiny" text-anchor="end">mean 0.28</text>
<line x1="1176" y1="162" x2="1202" y2="162" stroke="#d2a8ff" stroke-width="2.6" stroke-linecap="round"/>
<polygon points="1189.00,157.30 1193.70,165.70 1184.30,165.70" fill="#161b22" stroke="#d2a8ff" stroke-width="2.2"/>
<text x="1214" y="166" class="legend">Granite-350M</text>
<text x="1390" y="166" class="tiny" text-anchor="end">mean 0.27</text>
<line x1="1176" y1="193" x2="1202" y2="193" stroke="#39d3bb" stroke-width="2.6" stroke-linecap="round"/>
<rect x="1185.76" y="189.76" width="6.48" height="6.48" rx="1.2" fill="#161b22" stroke="#39d3bb" stroke-width="2.2"/>
<text x="1214" y="197" class="legend">LFM2-350M</text>
<text x="1390" y="197" class="tiny" text-anchor="end">mean 0.24</text>
<line x1="1176" y1="224" x2="1202" y2="224" stroke="#ffa657" stroke-width="2.6" stroke-linecap="round"/>
<circle cx="1189.00" cy="224.00" r="3.7" fill="#161b22" stroke="#ffa657" stroke-width="2.2"/>
<text x="1214" y="228" class="legend">MiniCPM4-0.5B</text>
<text x="1390" y="228" class="tiny" text-anchor="end">mean 0.22</text>
<line x1="1176" y1="255" x2="1202" y2="255" stroke="#ff7b72" stroke-width="2.6" stroke-linecap="round"/>
<polygon points="1189.00,250.30 1193.70,255.00 1189.00,259.70 1184.30,255.00" fill="#161b22" stroke="#ff7b72" stroke-width="2.2"/>
<text x="1214" y="259" class="legend">OLMo2-1B</text>
<text x="1390" y="259" class="tiny" text-anchor="end">mean 0.22</text>
<line x1="1176" y1="286" x2="1202" y2="286" stroke="#79c0ff" stroke-width="2.6" stroke-linecap="round"/>
<rect x="1185.76" y="282.76" width="6.48" height="6.48" rx="1.2" fill="#161b22" stroke="#79c0ff" stroke-width="2.2"/>
<text x="1214" y="290" class="legend">SmolLM2-360M</text>
<text x="1390" y="290" class="tiny" text-anchor="end">mean 0.21</text>
<line x1="1176" y1="317" x2="1202" y2="317" stroke="#7ee787" stroke-width="2.6" stroke-linecap="round"/>
<polygon points="1189.00,312.30 1193.70,317.00 1189.00,321.70 1184.30,317.00" fill="#161b22" stroke="#7ee787" stroke-width="2.2"/>
<text x="1214" y="321" class="legend">Qwen3-0.6B</text>
<text x="1390" y="321" class="tiny" text-anchor="end">mean 0.21</text>
<line x1="1176" y1="348" x2="1202" y2="348" stroke="#f2cc60" stroke-width="2.6" stroke-linecap="round"/>
<circle cx="1189.00" cy="348.00" r="3.7" fill="#161b22" stroke="#f2cc60" stroke-width="2.2"/>
<text x="1214" y="352" class="legend">Gemma3-270M</text>
<text x="1390" y="352" class="tiny" text-anchor="end">mean 0.11</text>
<line x1="1176" y1="379" x2="1202" y2="379" stroke="#c9d1d9" stroke-width="2.6" stroke-linecap="round"/>
<polygon points="1189.00,374.30 1193.70,382.70 1184.30,382.70" fill="#161b22" stroke="#c9d1d9" stroke-width="2.2"/>
<text x="1214" y="383" class="legend">Llama3.2-1B</text>
<text x="1390" y="383" class="tiny" text-anchor="end">mean 0.08</text>
<text x="1140" y="68" class="tiny" text-anchor="end">Official strict parser: Final Answer: &lt;option&gt;</text>
</svg>
