<svg xmlns="http://www.w3.org/2000/svg" width="1500" height="760" viewBox="0 0 1500 760" role="img" aria-labelledby="title desc">
<title id="title">Accuracy across medical QA benchmarks</title>
<desc id="desc">Single-panel line chart showing strict-format accuracy for ten small language models. Datasets are sorted by mean accepted accuracy from high to low.</desc>
<rect width="100%" height="100%" fill="#ffffff"/>
<style>text{font-family:Inter,Arial,Helvetica,sans-serif;fill:#202124}.title{font-size:26px;font-weight:700}.subtitle{font-size:14px;fill:#5f6368}.axis{font-size:13px;fill:#3c4043}.tick{font-size:12px;fill:#5f6368}.legend{font-size:12px;fill:#202124}.grid{stroke:#e8eaed;stroke-width:1}.axisline{stroke:#3c4043;stroke-width:1.3}.series{fill:none;stroke-width:2.35;stroke-linecap:round;stroke-linejoin:round;opacity:.92}</style>
<text x="92" y="34" class="title">Multi-MedQA SLM Benchmark Accuracy</text>
<text x="92" y="57" class="subtitle">Strict multiple-choice accuracy. Datasets are sorted left-to-right by mean accepted accuracy.</text>
<line x1="92" y1="616.00" x2="1140" y2="616.00" class="grid"/>
<text x="77" y="620.00" text-anchor="end" class="tick">0.0</text>
<line x1="92" y1="533.85" x2="1140" y2="533.85" class="grid"/>
<text x="77" y="537.85" text-anchor="end" class="tick">0.1</text>
<line x1="92" y1="451.69" x2="1140" y2="451.69" class="grid"/>
<text x="77" y="455.69" text-anchor="end" class="tick">0.2</text>
<line x1="92" y1="369.54" x2="1140" y2="369.54" class="grid"/>
<text x="77" y="373.54" text-anchor="end" class="tick">0.3</text>
<line x1="92" y1="287.38" x2="1140" y2="287.38" class="grid"/>
<text x="77" y="291.38" text-anchor="end" class="tick">0.4</text>
<line x1="92" y1="205.23" x2="1140" y2="205.23" class="grid"/>
<text x="77" y="209.23" text-anchor="end" class="tick">0.5</text>
<line x1="92" y1="123.08" x2="1140" y2="123.08" class="grid"/>
<text x="77" y="127.08" text-anchor="end" class="tick">0.6</text>
<line x1="92" y1="82" x2="92" y2="616" class="axisline"/>
<line x1="92" y1="616" x2="1140" y2="616" class="axisline"/>
<text x="24" y="349.0" class="axis" transform="rotate(-90 24 349.0)" text-anchor="middle">Accuracy</text>
<line x1="92.00" y1="616" x2="92.00" y2="621" stroke="#3c4043" stroke-width="1"/>
<text x="92.00" y="644" text-anchor="end" class="tick" transform="rotate(-30 92.00 644)">PubMedQA</text>
<line x1="241.71" y1="616" x2="241.71" y2="621" stroke="#3c4043" stroke-width="1"/>
<text x="241.71" y="644" text-anchor="end" class="tick" transform="rotate(-30 241.71 644)">CRAFT</text>
<line x1="391.43" y1="616" x2="391.43" y2="621" stroke="#3c4043" stroke-width="1"/>
<text x="391.43" y="644" text-anchor="end" class="tick" transform="rotate(-30 391.43 644)">MMLU Med</text>
<line x1="541.14" y1="616" x2="541.14" y2="621" stroke="#3c4043" stroke-width="1"/>
<text x="541.14" y="644" text-anchor="end" class="tick" transform="rotate(-30 541.14 644)">MMedBench</text>
<line x1="690.86" y1="616" x2="690.86" y2="621" stroke="#3c4043" stroke-width="1"/>
<text x="690.86" y="644" text-anchor="end" class="tick" transform="rotate(-30 690.86 644)">MedQA</text>
<line x1="840.57" y1="616" x2="840.57" y2="621" stroke="#3c4043" stroke-width="1"/>
<text x="840.57" y="644" text-anchor="end" class="tick" transform="rotate(-30 840.57 644)">MedMCQA</text>
<line x1="990.29" y1="616" x2="990.29" y2="621" stroke="#3c4043" stroke-width="1"/>
<text x="990.29" y="644" text-anchor="end" class="tick" transform="rotate(-30 990.29 644)">AfriMedQA</text>
<line x1="1140.00" y1="616" x2="1140.00" y2="621" stroke="#3c4043" stroke-width="1"/>
<text x="1140.00" y="644" text-anchor="end" class="tick" transform="rotate(-30 1140.00 644)">MedXpertQA</text>
<polyline class="series" stroke="#0072B2" points="92.00,100.07 241.71,131.13 391.43,184.45 541.14,279.50 690.86,266.68 840.57,311.62 990.29,400.02 1140.00,522.43"/>
<circle cx="92.00" cy="100.07" r="4.4" fill="white" stroke="#0072B2" stroke-width="2.1"/>
<circle cx="241.71" cy="131.13" r="4.4" fill="white" stroke="#0072B2" stroke-width="2.1"/>
<circle cx="391.43" cy="184.45" r="4.4" fill="white" stroke="#0072B2" stroke-width="2.1"/>
<circle cx="541.14" cy="279.50" r="4.4" fill="white" stroke="#0072B2" stroke-width="2.1"/>
<circle cx="690.86" cy="266.68" r="4.4" fill="white" stroke="#0072B2" stroke-width="2.1"/>
<circle cx="840.57" cy="311.62" r="4.4" fill="white" stroke="#0072B2" stroke-width="2.1"/>
<circle cx="990.29" cy="400.02" r="4.4" fill="white" stroke="#0072B2" stroke-width="2.1"/>
<circle cx="1140.00" cy="522.43" r="4.4" fill="white" stroke="#0072B2" stroke-width="2.1"/>
<polyline class="series" stroke="#D55E00" points="92.00,275.88 241.71,296.83 391.43,322.55 541.14,346.95 690.86,338.40 840.57,431.56 990.29,501.72 1140.00,577.47"/>
<rect x="87.90" y="271.78" width="8.2" height="8.2" rx="1.2" fill="white" stroke="#D55E00" stroke-width="2.1"/>
<rect x="237.61" y="292.73" width="8.2" height="8.2" rx="1.2" fill="white" stroke="#D55E00" stroke-width="2.1"/>
<rect x="387.33" y="318.45" width="8.2" height="8.2" rx="1.2" fill="white" stroke="#D55E00" stroke-width="2.1"/>
<rect x="537.04" y="342.85" width="8.2" height="8.2" rx="1.2" fill="white" stroke="#D55E00" stroke-width="2.1"/>
<rect x="686.76" y="334.30" width="8.2" height="8.2" rx="1.2" fill="white" stroke="#D55E00" stroke-width="2.1"/>
<rect x="836.47" y="427.46" width="8.2" height="8.2" rx="1.2" fill="white" stroke="#D55E00" stroke-width="2.1"/>
<rect x="986.19" y="497.62" width="8.2" height="8.2" rx="1.2" fill="white" stroke="#D55E00" stroke-width="2.1"/>
<rect x="1135.90" y="573.37" width="8.2" height="8.2" rx="1.2" fill="white" stroke="#D55E00" stroke-width="2.1"/>
<polyline class="series" stroke="#9467BD" points="92.00,313.67 241.71,355.33 391.43,419.08 541.14,478.06 690.86,381.04 840.57,444.54 990.29,589.71 1140.00,589.14"/>
<polygon points="92.00,308.67 97.00,313.67 92.00,318.67 87.00,313.67" fill="white" stroke="#9467BD" stroke-width="2.1"/>
<polygon points="241.71,350.33 246.71,355.33 241.71,360.33 236.71,355.33" fill="white" stroke="#9467BD" stroke-width="2.1"/>
<polygon points="391.43,414.08 396.43,419.08 391.43,424.08 386.43,419.08" fill="white" stroke="#9467BD" stroke-width="2.1"/>
<polygon points="541.14,473.06 546.14,478.06 541.14,483.06 536.14,478.06" fill="white" stroke="#9467BD" stroke-width="2.1"/>
<polygon points="690.86,376.04 695.86,381.04 690.86,386.04 685.86,381.04" fill="white" stroke="#9467BD" stroke-width="2.1"/>
<polygon points="840.57,439.54 845.57,444.54 840.57,449.54 835.57,444.54" fill="white" stroke="#9467BD" stroke-width="2.1"/>
<polygon points="990.29,584.71 995.29,589.71 990.29,594.71 985.29,589.71" fill="white" stroke="#9467BD" stroke-width="2.1"/>
<polygon points="1140.00,584.14 1145.00,589.14 1140.00,594.14 1135.00,589.14" fill="white" stroke="#9467BD" stroke-width="2.1"/>
<polyline class="series" stroke="#009E73" points="92.00,256.17 241.71,316.63 391.43,377.59 541.14,400.51 690.86,429.18 840.57,396.24 990.29,437.23 1140.00,535.49"/>
<polygon points="92.00,250.97 96.70,260.47 87.30,260.47" fill="white" stroke="#009E73" stroke-width="2.1"/>
<polygon points="241.71,311.43 246.41,320.93 237.01,320.93" fill="white" stroke="#009E73" stroke-width="2.1"/>
<polygon points="391.43,372.39 396.13,381.89 386.73,381.89" fill="white" stroke="#009E73" stroke-width="2.1"/>
<polygon points="541.14,395.31 545.84,404.81 536.44,404.81" fill="white" stroke="#009E73" stroke-width="2.1"/>
<polygon points="690.86,423.98 695.56,433.48 686.16,433.48" fill="white" stroke="#009E73" stroke-width="2.1"/>
<polygon points="840.57,391.04 845.27,400.54 835.87,400.54" fill="white" stroke="#009E73" stroke-width="2.1"/>
<polygon points="990.29,432.03 994.99,441.53 985.59,441.53" fill="white" stroke="#009E73" stroke-width="2.1"/>
<polygon points="1140.00,530.29 1144.70,539.79 1135.30,539.79" fill="white" stroke="#009E73" stroke-width="2.1"/>
<polyline class="series" stroke="#8C564B" points="92.00,497.70 241.71,600.97 391.43,604.66 541.14,442.57 690.86,450.13 840.57,423.92 990.29,547.32 1140.00,608.28"/>
<circle cx="92.00" cy="497.70" r="4.4" fill="white" stroke="#8C564B" stroke-width="2.1"/>
<circle cx="241.71" cy="600.97" r="4.4" fill="white" stroke="#8C564B" stroke-width="2.1"/>
<circle cx="391.43" cy="604.66" r="4.4" fill="white" stroke="#8C564B" stroke-width="2.1"/>
<circle cx="541.14" cy="442.57" r="4.4" fill="white" stroke="#8C564B" stroke-width="2.1"/>
<circle cx="690.86" cy="450.13" r="4.4" fill="white" stroke="#8C564B" stroke-width="2.1"/>
<circle cx="840.57" cy="423.92" r="4.4" fill="white" stroke="#8C564B" stroke-width="2.1"/>
<circle cx="990.29" cy="547.32" r="4.4" fill="white" stroke="#8C564B" stroke-width="2.1"/>
<circle cx="1140.00" cy="608.28" r="4.4" fill="white" stroke="#8C564B" stroke-width="2.1"/>
<polyline class="series" stroke="#7F7F7F" points="92.00,341.61 241.71,412.34 391.43,422.86 541.14,443.15 690.86,465.49 840.57,432.39 990.29,472.31 1140.00,529.49"/>
<rect x="87.90" y="337.51" width="8.2" height="8.2" rx="1.2" fill="white" stroke="#7F7F7F" stroke-width="2.1"/>
<rect x="237.61" y="408.24" width="8.2" height="8.2" rx="1.2" fill="white" stroke="#7F7F7F" stroke-width="2.1"/>
<rect x="387.33" y="418.76" width="8.2" height="8.2" rx="1.2" fill="white" stroke="#7F7F7F" stroke-width="2.1"/>
<rect x="537.04" y="439.05" width="8.2" height="8.2" rx="1.2" fill="white" stroke="#7F7F7F" stroke-width="2.1"/>
<rect x="686.76" y="461.39" width="8.2" height="8.2" rx="1.2" fill="white" stroke="#7F7F7F" stroke-width="2.1"/>
<rect x="836.47" y="428.29" width="8.2" height="8.2" rx="1.2" fill="white" stroke="#7F7F7F" stroke-width="2.1"/>
<rect x="986.19" y="468.21" width="8.2" height="8.2" rx="1.2" fill="white" stroke="#7F7F7F" stroke-width="2.1"/>
<rect x="1135.90" y="525.39" width="8.2" height="8.2" rx="1.2" fill="white" stroke="#7F7F7F" stroke-width="2.1"/>
<polyline class="series" stroke="#56B4E9" points="92.00,351.46 241.71,258.63 391.43,356.48 541.14,458.10 690.86,480.61 840.57,488.33 990.29,578.21 1140.00,532.86"/>
<polygon points="92.00,346.46 97.00,351.46 92.00,356.46 87.00,351.46" fill="white" stroke="#56B4E9" stroke-width="2.1"/>
<polygon points="241.71,253.63 246.71,258.63 241.71,263.63 236.71,258.63" fill="white" stroke="#56B4E9" stroke-width="2.1"/>
<polygon points="391.43,351.48 396.43,356.48 391.43,361.48 386.43,356.48" fill="white" stroke="#56B4E9" stroke-width="2.1"/>
<polygon points="541.14,453.10 546.14,458.10 541.14,463.10 536.14,458.10" fill="white" stroke="#56B4E9" stroke-width="2.1"/>
<polygon points="690.86,475.61 695.86,480.61 690.86,485.61 685.86,480.61" fill="white" stroke="#56B4E9" stroke-width="2.1"/>
<polygon points="840.57,483.33 845.57,488.33 840.57,493.33 835.57,488.33" fill="white" stroke="#56B4E9" stroke-width="2.1"/>
<polygon points="990.29,573.21 995.29,578.21 990.29,583.21 985.29,578.21" fill="white" stroke="#56B4E9" stroke-width="2.1"/>
<polygon points="1140.00,527.86 1145.00,532.86 1140.00,537.86 1135.00,532.86" fill="white" stroke="#56B4E9" stroke-width="2.1"/>
<polyline class="series" stroke="#4D4D4D" points="241.71,490.88 391.43,567.69 541.14,538.86 690.86,495.97 840.57,548.47 990.29,597.93 1140.00,605.57"/>
<text x="92.00" y="583.14" text-anchor="middle" class="tick">NA</text>
<polygon points="241.71,485.68 246.41,495.18 237.01,495.18" fill="white" stroke="#4D4D4D" stroke-width="2.1"/>
<polygon points="391.43,562.49 396.13,571.99 386.73,571.99" fill="white" stroke="#4D4D4D" stroke-width="2.1"/>
<polygon points="541.14,533.66 545.84,543.16 536.44,543.16" fill="white" stroke="#4D4D4D" stroke-width="2.1"/>
<polygon points="690.86,490.77 695.56,500.27 686.16,500.27" fill="white" stroke="#4D4D4D" stroke-width="2.1"/>
<polygon points="840.57,543.27 845.27,552.77 835.87,552.77" fill="white" stroke="#4D4D4D" stroke-width="2.1"/>
<polygon points="990.29,592.73 994.99,602.23 985.59,602.23" fill="white" stroke="#4D4D4D" stroke-width="2.1"/>
<polygon points="1140.00,600.37 1144.70,609.87 1135.30,609.87" fill="white" stroke="#4D4D4D" stroke-width="2.1"/>
<polyline class="series" stroke="#CC79A7" points="92.00,132.94 241.71,349.99 391.43,379.15 541.14,445.37 690.86,509.28 840.57,518.98 990.29,571.88 1140.00,575.74"/>
<circle cx="92.00" cy="132.94" r="4.4" fill="white" stroke="#CC79A7" stroke-width="2.1"/>
<circle cx="241.71" cy="349.99" r="4.4" fill="white" stroke="#CC79A7" stroke-width="2.1"/>
<circle cx="391.43" cy="379.15" r="4.4" fill="white" stroke="#CC79A7" stroke-width="2.1"/>
<circle cx="541.14" cy="445.37" r="4.4" fill="white" stroke="#CC79A7" stroke-width="2.1"/>
<circle cx="690.86" cy="509.28" r="4.4" fill="white" stroke="#CC79A7" stroke-width="2.1"/>
<circle cx="840.57" cy="518.98" r="4.4" fill="white" stroke="#CC79A7" stroke-width="2.1"/>
<circle cx="990.29" cy="571.88" r="4.4" fill="white" stroke="#CC79A7" stroke-width="2.1"/>
<circle cx="1140.00" cy="575.74" r="4.4" fill="white" stroke="#CC79A7" stroke-width="2.1"/>
<polyline class="series" stroke="#E69F00" points="92.00,435.26 241.71,222.07 391.43,328.54 541.14,456.38 690.86,523.00 840.57,403.47 990.29,464.26 1140.00,541.24"/>
<rect x="87.90" y="431.16" width="8.2" height="8.2" rx="1.2" fill="white" stroke="#E69F00" stroke-width="2.1"/>
<rect x="237.61" y="217.97" width="8.2" height="8.2" rx="1.2" fill="white" stroke="#E69F00" stroke-width="2.1"/>
<rect x="387.33" y="324.44" width="8.2" height="8.2" rx="1.2" fill="white" stroke="#E69F00" stroke-width="2.1"/>
<rect x="537.04" y="452.28" width="8.2" height="8.2" rx="1.2" fill="white" stroke="#E69F00" stroke-width="2.1"/>
<rect x="686.76" y="518.90" width="8.2" height="8.2" rx="1.2" fill="white" stroke="#E69F00" stroke-width="2.1"/>
<rect x="836.47" y="399.37" width="8.2" height="8.2" rx="1.2" fill="white" stroke="#E69F00" stroke-width="2.1"/>
<rect x="986.19" y="460.16" width="8.2" height="8.2" rx="1.2" fill="white" stroke="#E69F00" stroke-width="2.1"/>
<rect x="1135.90" y="537.14" width="8.2" height="8.2" rx="1.2" fill="white" stroke="#E69F00" stroke-width="2.1"/>
<text x="1182" y="84" class="axis" font-weight="700">Models</text>
<line x1="1182" y1="110" x2="1206" y2="110" stroke="#0072B2" stroke-width="2.5" stroke-linecap="round"/>
<text x="1214" y="114" class="legend">Qwen3.5-0.8B</text>
<text x="1214" y="128" class="tick">mean 0.416</text>
<line x1="1182" y1="154" x2="1206" y2="154" stroke="#D55E00" stroke-width="2.5" stroke-linecap="round"/>
<text x="1214" y="158" class="legend">Qwen2.5-0.5B</text>
<text x="1214" y="172" class="tick">mean 0.279</text>
<line x1="1182" y1="198" x2="1206" y2="198" stroke="#009E73" stroke-width="2.5" stroke-linecap="round"/>
<text x="1214" y="202" class="legend">Granite 4.0 350M</text>
<text x="1214" y="216" class="tick">mean 0.271</text>
<line x1="1182" y1="242" x2="1206" y2="242" stroke="#E69F00" stroke-width="2.5" stroke-linecap="round"/>
<text x="1214" y="246" class="legend">LFM2-350M</text>
<text x="1214" y="260" class="tick">mean 0.236</text>
<line x1="1182" y1="286" x2="1206" y2="286" stroke="#CC79A7" stroke-width="2.5" stroke-linecap="round"/>
<text x="1214" y="290" class="legend">MiniCPM4-0.5B</text>
<text x="1214" y="304" class="tick">mean 0.220</text>
<line x1="1337" y1="110" x2="1361" y2="110" stroke="#56B4E9" stroke-width="2.5" stroke-linecap="round"/>
<text x="1369" y="114" class="legend">OLMo-2 1B</text>
<text x="1369" y="128" class="tick">mean 0.217</text>
<line x1="1337" y1="154" x2="1361" y2="154" stroke="#7F7F7F" stroke-width="2.5" stroke-linecap="round"/>
<text x="1369" y="158" class="legend">SmolLM2-360M</text>
<text x="1369" y="172" class="tick">mean 0.214</text>
<line x1="1337" y1="198" x2="1361" y2="198" stroke="#9467BD" stroke-width="2.5" stroke-linecap="round"/>
<text x="1369" y="202" class="legend">Qwen3-0.6B</text>
<text x="1369" y="216" class="tick">mean 0.207</text>
<line x1="1337" y1="242" x2="1361" y2="242" stroke="#8C564B" stroke-width="2.5" stroke-linecap="round"/>
<text x="1369" y="246" class="legend">Gemma 3 270M IT</text>
<text x="1369" y="260" class="tick">mean 0.114</text>
<line x1="1337" y1="286" x2="1361" y2="286" stroke="#4D4D4D" stroke-width="2.5" stroke-linecap="round"/>
<text x="1369" y="290" class="legend">Llama 3.2 1B</text>
<text x="1369" y="304" class="tick">mean 0.081</text>
<text x="1140" y="736" text-anchor="end" class="subtitle">NA: excluded from the main table. PubMedQA lacks an admitted Llama score.</text>
</svg>
